<?xml version="1.0" standalone="yes"?>
<svg xmlns="http://www.w3.org/2000/svg" width="1078" height="1920">
<path style="fill:#010101; stroke:none;" d="M0 0L0 1920L1078 1920L1078 0L0 0z"/>
<path style="fill:#ffffff; stroke:none;" d="M411 492L411 624C411 645.803 412.581 668.276 411 690C412.32 688.044 412.299 687.392 412 685C413.915 686.277 413.085 686.277 415 685C415.319 688.65 416.042 691.884 418 695L417 684C419.337 690.192 422.289 697.418 423 704C424.999 704.85 425.429 705.33 427 704C428.817 705.157 428.835 705.145 431 705C431.69 706.537 431.328 706.338 433 706L434 707C432.723 708.915 432.723 708.085 434 710C435.015 708.861 435.309 708.388 436 707C437.478 707.986 437.203 708 439 708C439.409 704.888 441.257 705.407 444 706C450.032 700.094 456.78 698.059 459.402 689C461.006 683.458 461.833 676.762 461.946 671C462.094 663.499 460.777 656.291 466 650C465.428 652.377 465.109 654.558 465 657C471.263 643.969 465.366 630.374 466 617C464.203 617 464.478 617.014 463 618C462.311 615.273 461.837 612.813 462 610C460.921 611.441 461.031 611.168 461 613C458.092 611.51 457.063 610.308 457 607L455 607C455 608.791 455.101 609.087 453 608.667C446.989 607.464 442.057 607.21 436 608C433.635 608.308 432.321 610 430 610C430.208 611.661 430.495 611.54 429 612C428.826 614.362 428.447 615.096 427 617L427 492L411 492z"/>
<path style="fill:#01ff01; stroke:none;" d="M427 492L427 617C428.77 615.138 428.973 614.58 429 612C430.868 610.992 431.307 609.028 432.861 607.361C434.738 605.347 437.805 603.885 439.278 601.583C440.578 599.552 440 596.291 440 594L440 578L440 492L427 492z"/>
<path style="fill:#01f901; stroke:none;" d="M440 492L440 565L440 588C440 591.446 440.59 595.554 439.682 598.907C438.372 603.743 432.729 606.027 431 611C435.61 608.435 442.658 606.579 448 607.491C450.498 607.917 454.453 610.21 455 607L457 607C456.863 610.561 457.573 611.911 461 613L461 610L463 618L466 617C465.364 623.988 468.241 631.007 468.161 638C468.09 644.277 466.272 650.675 466 657C465.437 654.429 465.564 652.608 466 650C460.214 654.613 461.715 663.555 461.871 670C462.009 675.659 460.976 682.563 459.402 688C458.095 692.516 455.542 696.603 451.96 699.66C449.257 701.966 445.999 703.044 444 706C441.169 705.193 439.392 704.849 439 708L436 707L434 710L434 707L433 706C431.339 706.208 431.46 706.495 431 705C429.048 705.07 429.06 705.354 428 704C426.804 704.598 427.023 704.466 426 706C424.861 704.985 424.388 704.691 423 704C422.83 697.16 418.925 690.833 418 684C416.458 687.71 417.866 691.143 418 695C416.547 691.718 415.524 688.553 415 685L412 685C412.018 690.678 412.94 696.39 412 702C413.726 704.696 413.912 707.956 415 711C411.13 714.987 415.759 727.977 417 733C418.416 732.528 418.814 732.186 420 731C421.028 737.367 421.385 743.054 424 749L427 747C427 753.173 427.411 759.479 426.176 765.561C424.792 772.372 421.401 778.913 421.886 786.015C422.137 789.701 424.158 793.366 425 797L423 796C425.932 803.527 424.222 810.367 432 815L432 811C435.605 823.196 433 839.289 433 852L433 938C436.51 935.469 435.998 932.08 436 928L436 906L436 844C436 835.075 434.092 823.664 436.318 815.015C437.319 811.124 440.91 809.511 443.367 806.675C447.101 802.364 450.947 796.657 453.812 791.714C458.275 784.019 458.701 774.156 462.641 766C463.913 763.367 464.793 759.705 467.394 758.028C470.414 756.08 475.577 757 479 757L507 757C542.319 757 577.626 758 613 758C605.001 760.364 595.312 759 587 759L537 759C543.678 761.802 553.784 760 561 760L613 760L613 768L535 768L535 771L613 771C604.72 773.448 594.607 772 586 772L534 772L534 774L612 774L612 779L532 779C538.919 781.903 549.52 780 557 780L612 780L612 783L531 783C537.919 785.903 548.52 784 556 784L612 784C605.416 785.946 597.834 785 591 785L552 785C545.862 785 533.92 782.564 530 788L612 788C605.132 790.03 597.131 789 590 789L551 789C545.068 789 532.547 786.529 529 792L611 792C602.439 794.531 591.901 793 583 793L528 793C535.159 796.004 546.256 794 554 794L611 794C602.439 796.531 591.901 795 583 795L528 795C535.159 798.004 546.256 796 554 796L611 796L611 800L555 800C545.805 800 534.842 798.386 526 801C533.159 804.004 544.256 802 552 802L611 802C602.158 804.614 591.195 803 582 803L526 803C533.159 806.004 544.256 804 552 804L610 804L610 812L522 812L522 814L610 814C602.849 816.114 594.427 815 587 815L543 815C536.572 815 523.083 812.338 519 818L609 818L609 822L538 822C529.925 822 517.595 819.023 514 828L608 828L608 832L535 832C528.43 832 514.162 829.229 510 835L607 835L607 841L530 841C521.074 841 507.57 837.708 503 847L606 847L606 849L502 849C509.639 852.206 521.729 850 530 850L592 850L592 865L511 865C501.934 865 487.639 861.568 483 871L590 871C581.72 873.448 571.607 872 563 872L509 872L490 872C486.213 872.008 483.171 871.651 481 875L589 875L589 877L504 877C495.399 877 479.823 873.452 476 883L587 883C584.503 888.634 582.045 894.926 581 901L501 901C488.874 901 473.638 898.56 462 902C465.699 903.552 470.017 903 474 903L497 903L579 903C577.34 908.806 573.931 920.577 568.61 923.972C565.776 925.78 561.199 925 558 925L535 925L445 925L445 927L568 927C565.066 933.284 561.229 942.583 555 946L555 950L550 950L550 956L527 956L527 980L427 980L427 984L500 984L518 984C520.845 984.006 524.342 983.631 526.682 985.603C529.612 988.072 528.998 992.586 529 996L529 1022L529 1130L632 1130L658 1130C662.568 1130 667.146 1130.7 671 1128C673.151 1134.04 676.609 1139.25 679.363 1145C682.063 1150.64 684.419 1157.8 688.352 1162.68C692.318 1167.61 696.188 1161.98 697 1158L921 1158L921 1156L698 1156L698 1153L921 1153L921 1148L699 1148L699 1144L921 1144L921 1137L700 1137L700 1131L921 1131L921 1123L701 1123L701 1105L921 1105C915.049 1102.5 906.42 1104 900 1104L856 1104L701 1104L701 1098L921 1098L921 1092L702 1092L702 1090L793 1090L793 1030C793 1019.33 791.52 1007.41 794 997C796.779 1006.4 795 1018.22 795 1028L795 1090L797 1090L797 1021C797 1011.57 794.595 999.573 801 992L801 1091C803.802 1084.32 802 1074.22 802 1067L802 1015C802 1006.48 799.842 995.171 805 988L805 1091C807.802 1084.32 806 1074.22 806 1067L806 1013L806 995C806.005 992.266 805.577 988.718 807.179 986.318C808.9 983.739 812.275 984.02 815 984.001C821.666 983.955 828.334 984 835 984L921 984L921 958L800 958L798 949L921 949L921 909L786 909L786 907L903 907C899.042 905.339 894.26 906 890 906L867 906L785 906C796.08 902.725 810.459 905 822 905L896 905L896 793C899.275 804.08 897 818.459 897 830L897 905L899 905L899 819C899 809.553 895.731 794.3 904 788L904 907L907 907L907 785C910.523 796.917 908 812.581 908 825L908 907L915 908L915 809C915 799.564 911.064 780.789 921 776L921 524L857 524L857 492L682 492L682 507L566 507L567 511L681 511L681 514L569 514C574.591 518.236 586.172 516 593 516L655 516C662.822 516 676.013 513.348 682 519L572 519C575.699 520.552 580.017 520 584 520L605 520L682 520L682 523L574 523C577.699 524.552 582.017 524 586 524L607 524L682 524C671.478 527.11 657.955 525 647 525L575 525C580.84 530.964 596.066 528 604 528L683 528L683 531L579 531C582.715 540.277 596.656 537 605 537L684 537L684 539L583 539C587.492 547.007 600.979 544 609 544L685 544L685 547L588 547C594.436 549.701 604.049 548 611 548L660 548C667.641 548 680.143 545.47 686 551L590 551C597.879 554.306 610.466 552 619 552L686 552L686 555L592 555C596.648 561.801 609.574 559 617 559L687 559L687 562L596 562C600.562 568.674 612.724 566 620 566L688 566L688 570L601 570C604.547 575.471 617.068 573 623 573L689 573L689 576C630.758 576 573.239 578 515 578C514.409 549.377 514 520.697 514 492L495 492L495 553L495 573C495 576.245 495.471 580.003 493.972 583C492.028 586.888 488.031 589.969 485 593L485 492L465 492L465 566C465 577.769 463.72 590.356 465 602C462.944 602.487 461.856 602.952 460 604L460 492L457 492L457 578C457 583.643 458.367 591.418 456.181 596.714C454.82 600.011 452.332 602.859 449 601L443 601L443 492L440 492z"/>
<path style="fill:#01fb01; stroke:none;" d="M443 492L443 601L449 601C451.785 604.052 454.864 600.673 456.181 597.571C458.495 592.123 457 583.832 457 578L457 492L443 492M460 492L460 604L465 602C464.214 589.789 465 577.25 465 565L465 492L460 492z"/>
<path style="fill:#01f701; stroke:none;" d="M485 492L485 593C488.357 590.635 492.087 587.77 493.972 584C496.964 578.018 495 567.573 495 561L495 492L485 492M514 492C514 520.693 513.772 549.385 515 578C573.242 578 630.761 576 689 576L689 573L625 573C617.928 573 606.252 575.363 601 570L688 570L688 566L622 566C613.634 566 602.214 568.453 596 562L687 562L687 559L618 559C609.634 559 598.214 561.453 592 555L686 555L686 552L590 552C599.683 549.138 611.924 551 622 551L686 551C681.838 545.229 667.57 548 661 548L588 548C597.683 545.138 609.924 547 620 547L685 547L685 544L611 544C601.793 544 589.391 546.756 583 539L684 539L684 537L607 537C597.648 537 584.45 540.122 579 531L683 531L683 528L606 528C596.627 528 582.863 530.656 575 525L682 525C678.301 523.448 673.983 524 670 524L649 524L574 524C584.801 520.807 598.752 523 610 523L682 523L682 520L572 520C582.801 516.807 596.752 519 608 519L682 519C679.469 515.49 676.08 516.002 672 516L653 516L599 516C589.251 516 578.521 517.267 569 515C580.08 511.725 594.459 514 606 514L681 514L681 511L567 511L566 507L682 507L682 492L514 492z"/>
<path style="fill:#01ff01; stroke:none;" d="M857 492L857 524L921 524L921 492L857 492z"/>
<path style="fill:#01fb01; stroke:none;" d="M772 498L772 575L696 575L696 577L747 577C756.441 577 766.778 575.804 776 578C767.72 580.448 757.607 579 749 579L696 579C702.919 581.903 713.52 580 721 580L777 580L777 498L772 498z"/>
<path style="fill:#01f701; stroke:none;" d="M787 499L787 556C787 566.884 787.992 578.27 786 589L874 589L874 586L788 586C796.842 583.386 807.805 585 817 585L873 585L873 583L789 583L789 499L787 499M810 505L810 563L868 563C862.784 560.811 855.619 562 850 562L813 562L813 560L867 560C863.882 555.676 857.868 557 853 557L818 557C821.61 541.838 819 523.565 819 508L817 508L817 557C815.308 551.275 816 544.94 816 539L816 507C813.915 511.969 815 518.65 815 524L815 559C813.223 552.988 814 546.239 814 540L814 506L812 506L812 562C808.395 549.804 811 533.711 811 521C811 515.92 811.981 509.72 810 505z"/>
<path style="fill:#01ff01; stroke:none;" d="M504 631L504 633L580 633C573.861 641.883 565.865 640 556 640L502 640L502 642L574 642C571.327 647.021 567.648 655.959 562.671 658.972C558.14 661.715 549.143 660 544 660L497 660L497 662L562 662C561.014 663.479 561 663.203 561 665L608 665C612.32 665 621.852 666.779 625.397 663.972C628.829 661.254 627 650.938 627 647L627 597L610 597C607.377 597.001 603.911 596.481 601.61 598.028C599.046 599.75 597.542 603.432 596 606L586.4 622C584.701 624.83 583.012 629.009 579.79 630.397C573.809 632.973 563.46 631 557 631L504 631z"/>
<path style="fill:#01f701; stroke:none;" d="M700 601C707.399 604.105 718.993 602 727 602L787 602C788.733 609.94 801.579 607 808 607L875 607L875 599C816.423 599 758.571 601 700 601z"/>
<path style="fill:#ffffff; stroke:none;" d="M437 605L438 606L437 605z"/>
<path style="fill:#01ff01; stroke:none;" d="M633 605L633 666L668 666L667 662L703 662L703 660L676 660C670.996 660 666.846 660.64 664 656L702 656L702 654L675 654C669.04 654 664.247 654.715 660 650L701 650L701 648L670 648C664.779 648 660.003 648.895 657 644L700 644L700 642L669 642C665.18 642 659.641 642.977 656.21 640.972C653.388 639.324 651.835 635.725 650.281 633C647.226 627.644 644.219 622.259 641 617L696 617L696 615L658 615C653.11 615 645.765 616.359 641.21 614.397C637.536 612.814 635.805 607.72 633 605z"/>
<path style="fill:#ffffff; stroke:none;" d="M435 606L436 607L435 606M431 608L432 609L431 608M465 615L466 616L465 615z"/>
<path style="fill:#01f901; stroke:none;" d="M464 625L465 626L464 625z"/>
<path style="fill:#ffffff; stroke:none;" d="M469 634L470 635L469 634z"/>
<path style="fill:#01fb01; stroke:none;" d="M418 655C418.545 656.635 418.365 656.455 420 657C419.455 655.365 419.635 655.545 418 655z"/>
<path style="fill:#ffffff; stroke:none;" d="M464 658L463 684C464.582 680.229 463.813 676.038 464.09 672C464.414 667.269 465.898 662.524 464 658z"/>
<path style="fill:#01f701; stroke:none;" d="M494 669L493 675C537.242 675 580.762 673 625 673L625 670L494 669M491 681L624 681L624 677C590.279 677 556.682 676 523 676L501 676C496.052 676.002 492.204 675.48 491 681M713 676L713 679L887 679L887 676L713 676M490 682L490 684L556 684C548.849 686.114 540.427 685 533 685L489 685L489 687L555 687C547.849 689.114 539.427 688 532 688L488 688L488 690L623 690L623 684C578.431 684 534.578 682 490 682z"/>
<path style="fill:#01f901; stroke:none;" d="M411 687L412 688L411 687z"/>
<path style="fill:#ffffff; stroke:none;" d="M462 688L462 691C462.696 689.446 462.696 689.554 462 688M411 691L411 1165L427 1165L427 902L427 831C427 820.22 428.411 805.72 423 796L425 797C424.499 792.86 421.993 788.915 422.052 784.83C422.151 778.06 425.373 771.805 426.522 765.196C427.55 759.279 427 752.984 427 747C425.603 747.661 425.186 747.964 424 749L420 731C418.584 731.472 418.186 731.814 417 733C415.849 726.894 412.296 716.802 415 711C414.179 708.011 414.517 703.759 412 702C412.914 698.077 413.421 694.4 411 691M462 693L463 694L462 693M418 696L419 697L418 696z"/>
<path style="fill:#01f701; stroke:none;" d="M487 697L487 704L622 703L622 700L553 700C560.434 697.802 569.278 699 577 699L622 699L622 697L487 697z"/>
<path style="fill:#ffffff; stroke:none;" d="M419 698C419.406 700.093 419.217 700.02 421 701C420.317 699.42 420.195 699.223 419 698z"/>
<path style="fill:#01f901; stroke:none;" d="M427.667 702.333C427.222 702.778 428.278 702.722 428.333 702.667C428.778 702.222 427.722 702.278 427.667 702.333z"/>
<path style="fill:#ffffff; stroke:none;" d="M421 703L422 704L421 703z"/>
<path style="fill:#01f901; stroke:none;" d="M432 704L433 705L432 704z"/>
<path style="fill:#01f701; stroke:none;" d="M481 707C479.131 713.832 475.636 720.096 474 727L616 727C609.806 724.401 600.686 726 594 726L545 726C549.3 721.609 556.234 723 562 723L601 723C605.017 723 612.922 724.504 616.298 721.972C619.013 719.936 619.543 715.093 620 712L550 712C557.434 709.802 566.278 711 574 711L621 711L621 708L551 708L552 705C531.843 705 511.14 703.618 491.039 705.054C487.583 705.301 484.486 706.774 481 707z"/>
<path style="fill:#ffffff; stroke:none;" d="M441 706L442 707L441 706M441 708L440 710C441.263 709.029 441.392 709.306 441 708M438 709L439 710L438 709M443 709L444 710L443 709z"/>
<path style="fill:#01ff01; stroke:none;" d="M719 712L719 715L897 716L897 714L808 714C817.122 711.303 828.511 713 838 713L896 713L896 711L719 712z"/>
<path style="fill:#ffffff; stroke:none;" d="M415 722L416 723L415 722M426 722L427 723L426 722M426.333 728.667C426.277 728.723 426.223 729.777 426.667 729.333C426.722 729.278 426.778 728.222 426.333 728.667M420 729L421 730L420 729z"/>
<path style="fill:#01f701; stroke:none;" d="M812 729C815.796 737.958 814 749.409 814 759L814 819L816 819L816 732C821.03 738.992 819 749.7 819 758L819 818L821 818L821 735C826.149 740.454 824 750.914 824 758L824 817C826.903 810.081 825 799.48 825 792L825 737C829.768 743.628 828 753.143 828 761L828 816L830 816L830 740L905 740L902 729L812 729z"/>
<path style="fill:#01ff01; stroke:none;" d="M419 732L420 733L419 732z"/>
<path style="fill:#01f701; stroke:none;" d="M473 735L473 742L540 742C532.849 744.114 524.427 743 517 743L473 743L473 749C470.355 749.427 469.539 749.821 468 752L614 751L614 744L540 744C547.717 741.719 556.982 743 565 743L614 743L614 741L541 741C548.717 738.719 557.982 740 566 740L615 740C608.564 737.299 598.951 739 592 739L542 739L542 737L615 737L615 733C567.42 733 520.567 735 473 735M834 742C837.625 748.518 836 757.737 836 765L836 814C838.599 807.806 837 798.686 837 792L837 744C840.412 750.393 839 758.898 839 766L839 813C841.497 807.049 840 798.42 840 792L840 746C843.292 752.169 842 760.15 842 767L842 812L844 812L844 770C844 762.573 845.114 754.151 843 747L907 747L906 742L834 742z"/>
<path style="fill:#ffffff; stroke:none;" d="M426.333 744.667C426.278 744.722 426.223 745.778 426.667 745.333C426.722 745.278 426.778 744.222 426.333 744.667z"/>
<path style="fill:#01f701; stroke:none;" d="M427 939L427 946L519 946L545 946C548.499 946 553.403 946.856 556.671 945.397C561.931 943.049 566.36 932.183 568 927L445 927L445 925L533 925L558 925C561.171 925 565.664 925.782 568.61 924.397C574.066 921.83 578.021 908.508 579 903L462 903C471.376 897.996 487.491 901 498 901L581 901L587 883L476 883C481.537 873.732 495.494 877 505 877L589 877L589 875L481 875C486.841 869.036 502.066 872 510 872L590 872C586.301 870.448 581.983 871 578 871L557 871L483 871C489.384 861.956 501.962 865 512 865L592 865L592 850L502 850C512.242 846.972 525.338 849 536 849L606 849L606 847L503 847C509.277 838.108 521.131 841 531 841L607 841L607 835L510 835C515.987 829.348 529.178 832 537 832L608 832L608 828L514 828C519.165 819.355 530.132 822 539 822L609 822L609 818L519 818C524.725 812.595 536.542 815 544 815L610 815C602.601 811.895 591.007 814 583 814L522 814L522 812L610 812L610 804L526 804C534.842 801.386 545.805 803 555 803L611 803C603.841 799.996 592.744 802 585 802L526 802C533.268 798.121 543.907 800 552 800L611 800L611 796L528 796C536.561 793.469 547.099 795 556 795L611 795C603.841 791.996 592.744 794 585 794L528 794C536.561 791.469 547.099 793 556 793L611 793C604.081 790.097 593.48 792 586 792L529 792C534.127 786.764 545.105 789 552 789L612 789C605.081 786.097 594.48 788 587 788L530 788C535.453 782.851 545.914 785 553 785L612 785C605.081 782.097 594.48 784 587 784L531 784C539.28 781.552 549.393 783 558 783L612 783L612 780L532 780C540.28 777.552 550.393 779 559 779L612 779L612 774L534 774L534 772L613 772C606.322 769.198 596.216 771 589 771L535 771L535 768L613 768L613 760L537 760C544.999 757.636 554.688 759 563 759L613 759C609.301 757.448 604.983 758 601 758L578 758C552.609 758 527.382 757 502 757L477 757C473.972 757 469.266 756.158 466.649 758.028C464.51 759.555 463.732 762.745 462.641 765C458.664 773.218 458.224 783.025 453.812 790.83C451 795.806 447.002 801.408 443.367 805.816C441.033 808.645 437.311 810.269 436.318 814.04C433.978 822.922 436 834.819 436 844L436 909C436 918.851 440.515 938.092 427 939z"/>
<path style="fill:#01f901; stroke:none;" d="M424 759L425 760L424 759z"/>
<path style="fill:#01f701; stroke:none;" d="M778 770C772.82 775.882 767.34 775 760 775L726 775L726 778L771 778C765.564 779.607 759.64 779 754 779L726 779C730.469 780.875 736.191 780 741 780L771 780L771 824L779 824L779 788C779 782.381 780.189 775.216 778 770z"/>
<path style="fill:#ffffff; stroke:none;" d="M426 773L427 774L426 773M425 776L426 777L425 776z"/>
<path style="fill:#01f701; stroke:none;" d="M916 909L921 909L921 776C915.909 777.545 916.01 781.191 916 786L916 808L916 909z"/>
<path style="fill:#ffffff; stroke:none;" d="M425.333 778.667C425.278 778.722 425.223 779.778 425.667 779.333C425.722 779.278 425.778 778.222 425.333 778.667z"/>
<path style="fill:#01ff01; stroke:none;" d="M915 779L915 908L908 907L908 785C906.339 788.958 907 793.74 907 798L907 822L907 907L904 907L904 788C902.339 791.959 903 796.74 903 801L903 824L903 907L786 907L786 909L916 909L916 818L916 792C916 787.739 916.661 782.959 915 779z"/>
<path style="fill:#ffffff; stroke:none;" d="M424 783L423 786C424.289 784.557 424.401 784.766 424 783z"/>
<path style="fill:#01f701; stroke:none;" d="M902 788C895.981 796.367 899 811.997 899 822L899 905L897 905L897 793C895.448 796.698 896 801.017 896 805L896 827L896 905L785 905C788.959 906.661 793.74 906 798 906L821 906L903 906L903 824L903 801C903 796.739 903.661 791.959 902 788z"/>
<path style="fill:#01fb01; stroke:none;" d="M421 789L422 790L421 789z"/>
<path style="fill:#01f501; stroke:none;" d="M432 811L432 815L427 812L427 939L433 939L433 850L433 824C433 819.74 433.661 814.959 432 811z"/>
<path style="fill:#01f701; stroke:none;" d="M648 812L648 815L685 815C673.915 818.277 659.548 816 648 816C651.959 817.661 656.74 817 661 817L685 817L685 826L649 826L649 830L685 830C674.194 833.194 660.256 831 649 831C652.959 832.661 657.74 832 662 832L685 832L685 843L722 843L722 811L648 812M851 816L851 887C848.802 879.565 850 870.722 850 863L850 817C847.401 823.194 849 832.314 849 839L849 886L847 886L847 818L845 818L845 884C842.886 876.848 844 868.427 844 861L844 819L842 819L842 861C842 868.427 840.886 876.848 843 884L779 884C784.951 886.497 793.58 885 800 885L846 885C838.849 887.114 830.427 886 823 886L780 886L780 889L853 889L853 816L851 816M728 825L728 850L745 850L745 847L762 847C756.562 844.718 749.825 846.387 744 845C749.437 843.393 755.358 844 761 844L761 842L744 842C749.146 840.479 754.66 841 760 841L760 837L744 837C748.853 835.565 753.964 836 759 836L759 834L743 834C748.146 832.479 753.661 833 759 833L759 831L743 831L744 825L728 825M628 839L628 842L613 842L613 846L628 846L627 851L612 851L612 854L627 854L627 859L611 859L611 862L627 862L626 868L610 868L610 871L626 871L626 874L643 874L643 839L628 839M649 862L649 872L684 872C673.473 875.112 659.963 873 649 873L649 882L720 881C716.041 879.339 711.26 880 707 880L684 880L684 878L720 878L720 865L684 865C688.495 862.601 692.997 863 698 863L721 863C714.564 860.299 704.951 862 698 862L649 862M609 875C613.974 877.087 620.638 876 626 876L625 881L608 881C612.974 883.087 619.638 882 625 882L625 887L607 887C612.222 889.191 619.368 888 625 888C620.404 892.694 612.166 891 606 891L606 895L624 895L624 897L605 897L605 900L623 900L623 902L604 902L604 905L623 905L623 907L603 907L603 909L622 909L622 911L602 911L602 914L622 914C615.414 915.947 607.839 915 601 915L601 918L621 918C614.414 919.947 606.839 919 600 919L600 922L621 922C614.129 924.031 606.137 923 599 923C605.202 925.603 614.298 924 621 924C615.868 929.24 604.911 927 598 927L598 929L620 929C612.845 931.115 604.433 930 597 930L597 933L619 933C611.845 935.115 603.433 934 596 934L596 936L619 936C611.562 938.199 602.729 937 595 937L595 939L618 939C610.562 941.199 601.729 940 594 940C600.687 942.806 610.768 941 618 941L618 943L593 943L592 947L617 947L617 949L591 949L591 951L616 951C607.997 953.366 598.32 952 590 952L590 954L616 954C610.274 955.693 603.941 954.997 598 955C595.48 955.001 591.862 954.423 589.699 956.028C586.436 958.448 585.022 965.262 584 969C603.904 969 623.095 967 643 967L643 965L614 965L614 962L643 962L643 945L618 945C625.721 942.718 634.975 944 643 944L643 875L609 875z"/>
<path style="fill:#01fb01; stroke:none;" d="M649 882L649 960L676 960C676.137 957.514 676.127 954.607 678.434 953.028C680.734 951.453 684.37 952.001 687 952L705 952L705 950L677 950C678.339 945.766 678.908 941.441 679 937L710 937L710 935L680 935L680 933L702 933C706.08 932.998 709.469 933.51 712 930L680 930L680 928L712 928L712 926L681 926L681 923L713 923L713 921L681 921L681 918L705 918C709.08 917.998 712.469 918.51 715 915L682 915L682 912L706 912C710.08 911.998 713.469 912.51 716 909L682 909L682 906L706 906C710.296 906 714.302 906.74 717 903L683 903L683 900L717 900L717 898L683 898C693.527 894.888 707.037 897 718 897C714.301 895.448 709.983 896 706 896L683 896C683.251 893.776 683.379 891.423 685.434 890.026C687.955 888.312 692.12 889 695 889L719 889C715.301 887.448 710.983 888 707 888L684 888L684 884L719 884L719 881L649 882z"/>
<path style="fill:#01ff01; stroke:none;" d="M427 946L427 956L550 956L550 950L555 950L555 946L427 946z"/>
<path style="fill:#01f701; stroke:none;" d="M714 948L714 950L752 950C743.158 952.614 732.195 950.999 723 951C718.34 951 713.967 950.107 712 955L751 955C742.439 957.531 731.901 956 723 956C716.358 956 711.544 954.956 709 962L794 962C789.785 960.231 784.535 961 780 961L751 961L751 959L793 959C788.785 957.231 783.536 958 779 958L752 958C763.922 954.476 779.574 957 792 957L792 954L752 954L752 952L791 952L790 947L714 948M798 949L800 958L921 958L921 949L798 949M649 961C656.169 964.008 667.239 962 675 962C666.997 964.366 657.32 963 649 963L649 965L675 965C673.987 967.373 673.378 969.449 673 972L648 972L648 978L684 978C688.998 978 694.835 979.386 697 974L673 974C678.147 972.479 683.66 973.002 689 973C691.508 972.999 695.15 973.583 697.298 971.972C701.725 968.652 703.328 957.138 705 952C697.284 952 686.607 950.057 679.228 952.318C675.3 953.522 676.581 958.772 672.852 960.397C666.641 963.103 655.736 961 649 961M427 956L427 980L527 980L527 956L427 956M708 964L705 975L739 975C731.566 977.198 722.722 976 715 976C712.13 976 708.076 975.307 705.418 976.603C702.848 977.857 701.897 981.576 700.85 984C698.11 990.341 693.31 996.208 692 1003L715 1003C710.681 1007.69 706.197 1012.47 703 1018C709.781 1018 721.405 1020.27 727.586 1017.4C730.605 1016 733.372 1011.13 733.853 1007.99C735.267 998.731 734 988.365 734 979C736.864 988.688 735 1000.92 735 1011L740 1011L740 987C740 983.672 739.299 979.325 740.602 976.186C741.603 973.775 743.967 972.435 746 971L746 1010L749 1010L749 980C749 976.22 747.973 970.44 750.603 967.318C753.398 964.001 759.161 965 763 965L795 965C787.601 961.895 776.007 964 768 964L708 964M574 990L641 990C637.301 988.448 632.983 989 629 989L607 989C615.967 984.215 630.956 987 641 987C641.109 984.558 641.428 982.377 642 980L610 980L610 978L642 978L642 974L612 974C621.127 971.302 632.503 973 642 973L642 970L600 970C595.631 970 587.371 968.421 583.637 971.028C579.006 974.261 575.514 984.744 574 990M670 986L647 986L647 990L668 990L667 995L646 995L646 1000L678 1001L678 1007C680.061 1005.01 680.579 1003.84 681 1001C688.172 998.621 693.07 985.701 695 979C686.913 979 671.205 975.308 670 986M427 984L427 1134L674 1134L671 1128C666.319 1130.6 661.215 1130 656 1130L630 1130L529 1130L529 1023L529 996C529 992.899 529.822 988.029 527.397 985.603C525.526 983.732 522.418 984.017 520 984.001C513.667 983.957 507.333 984 501 984L427 984M806 1091C802.972 1080.76 805 1067.66 805 1057L805 988C799.152 993.727 802 1008.24 802 1016L802 1091C799.055 1081.04 801 1068.37 801 1058L801 992C794.356 997.534 797 1010.05 797 1018L797 1090L795 1090L795 997C790.528 1002.9 793 1015.77 793 1023L793 1090L702 1090L702 1092L921 1092L921 984L836 984L815 984C812.59 984.005 808.886 983.448 807.179 985.603C805.483 987.745 806.004 991.461 806 994L806 1014L806 1091M530 987L530 1127L670 1127L668 1123C663.319 1125.6 658.215 1125 653 1125L629 1125L534 1125C536.281 1112.71 535 1099.47 535 1087L535 1020L535 1000C535 994.192 535.821 989.769 530 987M537 991L537 1076C537 1091 538.742 1107.23 536 1122L667 1122C663.514 1119.36 659.247 1120 655 1120L632 1120L539 1120C542.745 1109.52 541 1097.05 541 1086L541 1022L541 1002C540.998 997.231 541.36 993.674 537 991M542 994L542 1114L661 1114C659.297 1108.65 655.376 1104.93 653 1100L558 1100L558 1027C558 1020.77 560.116 1009.71 556.972 1004.18C554.992 1000.7 550.464 998.639 547 997L547 1109C544.386 1100.16 546 1089.19 546 1080L546 1024C546 1016.15 549.415 998.548 542 994z"/>
<path style="fill:#01ff01; stroke:none;" d="M690 1003L690 1008L686 1008L686 1043C690.074 1038.78 692.528 1032.06 697.21 1028.6C699.987 1026.56 703.746 1027 707 1027L726 1027L726 1025L699 1025C704.201 1016.68 719.258 1020 728 1020L728 1018L703 1018C707.044 1013.03 711.461 1008.35 715 1003L690 1003z"/>
<path style="fill:#01f701; stroke:none;" d="M560 1006L560 1096L650 1096C646.68 1090.67 642.883 1084.98 638 1081L638 1085L573 1085L573 1032C573 1025.11 574.769 1016.8 569 1012L569 1089C567.054 1082.42 568 1074.83 568 1068L568 1030C568 1021.48 570.287 1011.95 562 1007L562 1093C559.886 1085.85 561 1077.43 561 1070L561 1028C561 1021.31 562.599 1012.19 560 1006M685 1009C682.651 1011.38 679.787 1013.78 678.603 1017C677.191 1020.85 678 1025.96 678 1030L678 1055C674.723 1043.91 677 1029.55 677 1018C674.365 1019.88 671.773 1021.83 670.603 1025C669.187 1028.84 670 1033.97 670 1038L670 1063C681.607 1060.24 695.101 1062 707 1062L707 1066C714.436 1058.62 720.591 1046.14 723 1036L701 1036C697.911 1036 693.984 1035.42 691.189 1037.03C688.841 1038.37 687.929 1040.63 687 1043C683.844 1032.32 689.271 1019.18 685 1009M774 1009L774 1070L772 1070L772 1010C769.811 1015.22 771 1022.38 771 1028L771 1064C769.223 1057.99 770 1051.24 770 1045L770 1011C767.915 1015.97 769 1022.65 769 1028L769 1064L734 1064C729.332 1064 722.553 1062.77 718.184 1064.6C714.16 1066.29 712.523 1071.06 712 1075L775 1075L775 1030C775 1023.58 776.497 1014.95 774 1009M766 1012L766 1057C764.393 1051.56 765 1045.64 765 1040L765 1013L763 1013L763 1053C759.558 1041.36 762 1026.13 762 1014L760 1014L760 1049L758 1049L758 1015C754.489 1023.37 757 1036.92 757 1046C752.091 1037.24 754 1025.77 754 1016L752 1016L752 1039C747.055 1035.54 731.562 1034.63 729 1041L753 1041C745.783 1043.13 736.056 1039.44 729.394 1042.6C724.689 1044.84 720.859 1057.18 720 1062L767 1062L767 1028C767 1022.92 767.981 1016.72 766 1012z"/>
<path style="fill:#01ff01; stroke:none;" d="M577 1019L577 1080L573 1080L573 1085L638 1085L638 1080L634 1080L634 1075L629 1075L629 1069L623 1069L623 1062L610 1062C610 1054.2 610.905 1048.03 604 1043L604 1062L591 1062L591 1030C589.339 1033.96 590 1038.74 590 1043L590 1069L583 1069L583 1075L578 1075L578 1037C578 1031.38 579.189 1024.22 577 1019M664 1030L664 1062L659 1062L659 1035C655.891 1042.41 658 1053.98 658 1062C654.304 1061.53 650.735 1061.03 647 1061L647 1044C645.018 1048.72 646 1054.91 646 1060L644 1060L644 1046C642.339 1049.96 643 1054.74 643 1059L641 1059L641 1048C639.56 1051.43 640 1055.3 640 1059C636.599 1056.91 636.127 1054.9 636 1051C635.015 1053.33 635.019 1055.46 635 1058L629 1057C630.343 1061.05 633.065 1060.95 637 1061L637 1069L642 1069L642 1075L646 1075L646 1080C663.575 1080 680.435 1078 698 1078L698 1076L671 1076L671 1070L694 1070C697.07 1070 701.087 1070.6 703.852 1068.97C706.512 1067.41 706.79 1064.77 707 1062C692.928 1062 679.011 1062.4 665 1063L665 1042C665 1038.02 665.552 1033.7 664 1030z"/>
<path style="fill:#01fb01; stroke:none;" d="M701 1098L701 1104L921 1104L921 1098L701 1098M701 1105L701 1109L921 1109L921 1105L701 1105z"/>
<path style="fill:#01f701; stroke:none;" d="M701 1109L701 1120L921 1120L921 1109L701 1109z"/>
<path style="fill:#01ff01; stroke:none;" d="M541 1114L539 1120L664 1120L662 1114L541 1114M701 1120L701 1123L921 1123L921 1120L701 1120z"/>
<path style="fill:#01f701; stroke:none;" d="M700 1131L700 1137L921 1137L921 1131L700 1131z"/>
<path style="fill:#01ff01; stroke:none;" d="M427 1134L427 1137L674 1137L674 1134L427 1134z"/>
<path style="fill:#01f701; stroke:none;" d="M427 1137L427 1143L679 1143C674.857 1135.51 668.702 1137 661 1137L617 1137L427 1137z"/>
<path style="fill:#01ff01; stroke:none;" d="M427 1143L427 1165L689 1165C687.365 1159.33 683.343 1147.5 678.363 1144.03C674.8 1141.54 667.157 1143 663 1143L622 1143L427 1143z"/>
<path style="fill:#01f701; stroke:none;" d="M699 1144L699 1148L921 1148L921 1144L699 1144z"/>
<path style="fill:#01f501; stroke:none;" d="M698 1153L698 1156L921 1156L921 1153L698 1153z"/>
<path style="fill:#01f701; stroke:none;" d="M697 1158C696.223 1160.49 695.183 1162.67 694 1165L921 1165L921 1158L697 1158z"/>
</svg>
